<?xml version="1.0" encoding="utf-8"?>
<!DOCTYPE svg PUBLIC "-//W3C//DTD SVG 1.1//EN" "http://www.w3.org/Graphics/SVG/1.1/DTD/svg11.dtd">
<svg version="1.1" id="Livello_1" xmlns="http://www.w3.org/2000/svg" xmlns:xlink="http://www.w3.org/1999/xlink" x="0px" y="0px"
	 width="341.738px" height="341.74px" viewBox="0 0 341.738 341.74" enable-background="new 0 0 341.738 341.74"
	 xml:space="preserve">
<path d="M170.869,341.74C76.651,341.74,0,265.088,0,170.869C0,76.651,76.651,0,170.869,0s170.869,76.651,170.869,170.869
	C341.738,265.088,265.087,341.74,170.869,341.74z M170.869,20C87.68,20,20,87.68,20,170.869c0,83.19,67.68,150.871,150.869,150.871
	s150.869-67.681,150.869-150.871C321.738,87.68,254.059,20,170.869,20z M143.573,136.634l11.479,0.708
	c11.873,1.062,6.04,14.121,6.04,14.121s-30.609,91.667-30.609,94.632c0,2.965-4.107,18.283,19.806,23.726
	c23.913,5.443,57.617-42.059,57.617-42.059l-6.001-3.235c0,0-5.179,8.278-11.104,15.548c-21.606,21.749-15.004-5.033-15.004-5.033
	l36.571-109.433l-66.879,4.016L143.573,136.634z M188.271,65.23c-14.041,0-25.423,9.311-25.423,20.795
	c0,11.484,11.382,20.795,25.423,20.795c14.041,0,25.422-9.311,25.422-20.795C213.694,74.541,202.312,65.23,188.271,65.23z"/>
</svg>
